<mxfile host="Electron" agent="Mozilla/5.0 (Macintosh; Intel Mac OS X 10_15_7) AppleWebKit/537.36 (KHTML, like Gecko) draw.io/26.0.15 Chrome/132.0.6834.196 Electron/34.2.0 Safari/537.36" version="26.0.15">
  <diagram name="Application-Integration" id="integration-scheme">
    <mxGraphModel dx="1468" dy="1117" grid="1" gridSize="10" guides="1" tooltips="1" connect="1" arrows="1" fold="1" page="1" pageScale="1" pageWidth="1654" pageHeight="1169" math="0" shadow="0">
      <root>
        <mxCell id="0" />
        <mxCell id="1" parent="0" />
        <mxCell id="title" value="Схема интеграции приложений банка &quot;Стандарт&quot;" style="text;html=1;strokeColor=none;fillColor=none;align=center;verticalAlign=middle;whiteSpace=wrap;rounded=0;fontSize=20;fontStyle=1;" parent="1" vertex="1">
          <mxGeometry x="593" y="20" width="500" height="30" as="geometry" />
        </mxCell>
        <mxCell id="customers" value="Клиенты банка&lt;br&gt;(старшего возраста)" style="rounded=1;whiteSpace=wrap;html=1;fillColor=#e1d5e7;strokeColor=#9673a6;fontStyle=1;" parent="1" vertex="1">
          <mxGeometry x="66" y="80" width="140" height="60" as="geometry" />
        </mxCell>
        <mxCell id="branch_staff" value="Сотрудники отделений&lt;br&gt;(500 человек, 50 офисов)" style="rounded=1;whiteSpace=wrap;html=1;fillColor=#e1d5e7;strokeColor=#9673a6;fontStyle=1;" parent="1" vertex="1">
          <mxGeometry x="66" y="180" width="140" height="60" as="geometry" />
        </mxCell>
        <mxCell id="call_operators" value="Операторы кол-центра&lt;br&gt;(200 человек)" style="rounded=1;whiteSpace=wrap;html=1;fillColor=#e1d5e7;strokeColor=#9673a6;fontStyle=1;" parent="1" vertex="1">
          <mxGeometry x="66" y="280" width="140" height="60" as="geometry" />
        </mxCell>
        <mxCell id="partner_call" value="Партнёрский кол-центр&lt;br&gt;(100 операторов)" style="rounded=1;whiteSpace=wrap;html=1;fillColor=#e1d5e7;strokeColor=#9673a6;fontStyle=1;" parent="1" vertex="1">
          <mxGeometry x="66" y="380" width="140" height="60" as="geometry" />
        </mxCell>
        <mxCell id="back_office" value="Бэк-офис&lt;br&gt;(100 сотрудников:&lt;br&gt;50 депозиты + 50 кредиты)" style="rounded=1;whiteSpace=wrap;html=1;fillColor=#e1d5e7;strokeColor=#9673a6;fontStyle=1;" parent="1" vertex="1">
          <mxGeometry x="66" y="480" width="140" height="80" as="geometry" />
        </mxCell>
        <mxCell id="website" value="Сайт банка&lt;br&gt;&lt;br&gt;PHP + React.js&lt;br&gt;Маркетинговая информация" style="rounded=1;whiteSpace=wrap;html=1;fillColor=#dae8fc;strokeColor=#6c8ebf;fontStyle=1;" parent="1" vertex="1">
          <mxGeometry x="350" y="80" width="140" height="80" as="geometry" />
        </mxCell>
        <mxCell id="internet_bank" value="Интернет-банк&lt;br&gt;&lt;br&gt;ASP.NET MVC 4.5&lt;br&gt;MS SQL Server&lt;br&gt;Платежи, текущие счета" style="rounded=1;whiteSpace=wrap;html=1;fillColor=#dae8fc;strokeColor=#6c8ebf;fontStyle=1;" parent="1" vertex="1">
          <mxGeometry x="350" y="200" width="140" height="100" as="geometry" />
        </mxCell>
        <mxCell id="call_center_system" value="Система кол-центра&lt;br&gt;&lt;br&gt;React.js + Spring Boot&lt;br&gt;PostgreSQL&lt;br&gt;Микросервисы CRM" style="rounded=1;whiteSpace=wrap;html=1;fillColor=#dae8fc;strokeColor=#6c8ebf;fontStyle=1;" parent="1" vertex="1">
          <mxGeometry x="330" y="365" width="140" height="90" as="geometry" />
        </mxCell>
        <mxCell id="abs_system" value="АБС&lt;br&gt;Автоматизированная&lt;br&gt;банковская система&lt;br&gt;&lt;br&gt;Delphi Desktop + Oracle&lt;br&gt;PL/SQL процедуры&lt;br&gt;Учёт операций" style="rounded=1;whiteSpace=wrap;html=1;fillColor=#d5e8d4;strokeColor=#82b366;fontStyle=1;" parent="1" vertex="1">
          <mxGeometry x="630" y="300" width="180" height="120" as="geometry" />
        </mxCell>
        <mxCell id="sms_gateway" value="СМС-шлюз&lt;br&gt;&lt;br&gt;Интеграция с&lt;br&gt;телеком-оператором" style="rounded=1;whiteSpace=wrap;html=1;fillColor=#fff2cc;strokeColor=#d6b656;fontStyle=1;" parent="1" vertex="1">
          <mxGeometry x="650" y="480" width="140" height="80" as="geometry" />
        </mxCell>
        <mxCell id="telecom" value="Телеком-оператор&lt;br&gt;&lt;br&gt;Внешний сервис&lt;br&gt;отправки СМС" style="rounded=1;whiteSpace=wrap;html=1;fillColor=#f8cecc;strokeColor=#b85450;fontStyle=1;" parent="1" vertex="1">
          <mxGeometry x="766" y="710" width="140" height="80" as="geometry" />
        </mxCell>
        <mxCell id="partner_system" value="Система партнёра&lt;br&gt;&lt;br&gt;Внешняя система&lt;br&gt;кол-центра&lt;br&gt;(изолирована)" style="rounded=1;whiteSpace=wrap;html=1;fillColor=#f8cecc;strokeColor=#b85450;fontStyle=1;" parent="1" vertex="1">
          <mxGeometry x="490" y="710" width="140" height="80" as="geometry" />
        </mxCell>
        <mxCell id="excel_process" value="Excel + Email&lt;br&gt;&lt;br&gt;Расчёт ставок&lt;br&gt;Обмен данными между&lt;br&gt;отделами" style="rounded=1;whiteSpace=wrap;html=1;fillColor=#fff2cc;strokeColor=#d6b656;fontStyle=1;" parent="1" vertex="1">
          <mxGeometry x="450" y="580" width="180" height="80" as="geometry" />
        </mxCell>
        <mxCell id="client_website" style="edgeStyle=orthogonalEdgeStyle;rounded=0;orthogonalLoop=1;jettySize=auto;html=1;entryX=0;entryY=0.5;entryDx=0;entryDy=0;strokeColor=#666666;strokeWidth=2;" parent="1" source="customers" target="website" edge="1">
          <mxGeometry relative="1" as="geometry" />
        </mxCell>
        <mxCell id="client_website_label" value="HTTPS&#xa;Просмотр информации" style="edgeLabel;html=1;align=left;verticalAlign=middle;resizable=0;points=[];" parent="client_website" vertex="1" connectable="0">
          <mxGeometry x="-0.1" y="-1" relative="1" as="geometry">
            <mxPoint x="-66" y="-18" as="offset" />
          </mxGeometry>
        </mxCell>
        <mxCell id="client_internet" style="edgeStyle=orthogonalEdgeStyle;rounded=0;orthogonalLoop=1;jettySize=auto;html=1;entryX=0;entryY=0.3;entryDx=0;entryDy=0;strokeColor=#666666;strokeWidth=2;" parent="1" source="customers" target="internet_bank" edge="1">
          <mxGeometry relative="1" as="geometry" />
        </mxCell>
        <mxCell id="client_internet_label" value="HTTPS&#xa;Платежи, счета" style="edgeLabel;html=1;align=center;verticalAlign=middle;resizable=0;points=[];" parent="client_internet" vertex="1" connectable="0">
          <mxGeometry x="-0.1" y="-1" relative="1" as="geometry">
            <mxPoint x="5" y="4" as="offset" />
          </mxGeometry>
        </mxCell>
        <mxCell id="client_call" style="edgeStyle=orthogonalEdgeStyle;rounded=0;orthogonalLoop=1;jettySize=auto;html=1;entryX=0;entryY=0.5;entryDx=0;entryDy=0;strokeColor=#666666;strokeWidth=2;" parent="1" source="customers" target="call_operators" edge="1">
          <mxGeometry relative="1" as="geometry">
            <Array as="points">
              <mxPoint x="26" y="120" />
              <mxPoint x="26" y="310" />
            </Array>
          </mxGeometry>
        </mxCell>
        <mxCell id="client_call_label" value="Телефонные&amp;nbsp;&lt;div&gt;&lt;span style=&quot;background-color: light-dark(#ffffff, var(--ge-dark-color, #121212)); color: light-dark(rgb(0, 0, 0), rgb(255, 255, 255));&quot;&gt;звонки&lt;/span&gt;&lt;/div&gt;" style="edgeLabel;html=1;align=center;verticalAlign=middle;resizable=0;points=[];" parent="client_call" vertex="1" connectable="0">
          <mxGeometry x="-0.1" y="-1" relative="1" as="geometry">
            <mxPoint x="31" y="158" as="offset" />
          </mxGeometry>
        </mxCell>
        <mxCell id="client_partner" style="edgeStyle=orthogonalEdgeStyle;rounded=0;orthogonalLoop=1;jettySize=auto;html=1;entryX=0;entryY=0.5;entryDx=0;entryDy=0;strokeColor=#666666;strokeWidth=2;" parent="1" source="customers" target="partner_call" edge="1">
          <mxGeometry relative="1" as="geometry">
            <Array as="points">
              <mxPoint x="16" y="110" />
              <mxPoint x="16" y="410" />
            </Array>
          </mxGeometry>
        </mxCell>
        <mxCell id="client_partner_label" value="Телефонные звонки" style="edgeLabel;html=1;align=center;verticalAlign=middle;resizable=0;points=[];" parent="client_partner" vertex="1" connectable="0">
          <mxGeometry x="-0.1" y="-1" relative="1" as="geometry">
            <mxPoint x="71" y="30" as="offset" />
          </mxGeometry>
        </mxCell>
        <mxCell id="client_branch" style="edgeStyle=orthogonalEdgeStyle;rounded=0;orthogonalLoop=1;jettySize=auto;html=1;entryX=0;entryY=0.5;entryDx=0;entryDy=0;strokeColor=#666666;strokeWidth=2;" parent="1" source="customers" target="branch_staff" edge="1">
          <mxGeometry relative="1" as="geometry">
            <Array as="points">
              <mxPoint x="46" y="130" />
              <mxPoint x="46" y="210" />
            </Array>
          </mxGeometry>
        </mxCell>
        <mxCell id="client_branch_label" value="Личное обслуживание" style="edgeLabel;html=1;align=center;verticalAlign=middle;resizable=0;points=[];" parent="client_branch" vertex="1" connectable="0">
          <mxGeometry x="-0.1" y="-1" relative="1" as="geometry">
            <mxPoint x="63" y="-1" as="offset" />
          </mxGeometry>
        </mxCell>
        <mxCell id="branch_abs" style="edgeStyle=orthogonalEdgeStyle;rounded=0;orthogonalLoop=1;jettySize=auto;html=1;entryX=0;entryY=0.3;entryDx=0;entryDy=0;strokeColor=#82b366;strokeWidth=3;" parent="1" source="branch_staff" target="abs_system" edge="1">
          <mxGeometry relative="1" as="geometry">
            <Array as="points">
              <mxPoint x="220" y="210" />
              <mxPoint x="220" y="250" />
              <mxPoint x="330" y="250" />
              <mxPoint x="330" y="336" />
            </Array>
          </mxGeometry>
        </mxCell>
        <mxCell id="branch_abs_label" value="Delphi Desktop&#xa;Все банковские операции" style="edgeLabel;html=1;align=center;verticalAlign=middle;resizable=0;points=[];" parent="branch_abs" vertex="1" connectable="0">
          <mxGeometry x="-0.1" y="-1" relative="1" as="geometry">
            <mxPoint x="72" y="-15" as="offset" />
          </mxGeometry>
        </mxCell>
        <mxCell id="call_system" style="edgeStyle=orthogonalEdgeStyle;rounded=0;orthogonalLoop=1;jettySize=auto;html=1;entryX=0;entryY=0.5;entryDx=0;entryDy=0;strokeColor=#6c8ebf;strokeWidth=3;" parent="1" source="call_operators" target="call_center_system" edge="1">
          <mxGeometry relative="1" as="geometry">
            <Array as="points">
              <mxPoint x="250" y="310" />
              <mxPoint x="250" y="380" />
              <mxPoint x="290" y="380" />
              <mxPoint x="290" y="410" />
            </Array>
          </mxGeometry>
        </mxCell>
        <mxCell id="call_system_label" value="React.js Web UI&#xa;CRM система" style="edgeLabel;html=1;align=center;verticalAlign=middle;resizable=0;points=[];textShadow=0;" parent="call_system" vertex="1" connectable="0">
          <mxGeometry x="-0.1" y="-1" relative="1" as="geometry">
            <mxPoint x="5" y="-15" as="offset" />
          </mxGeometry>
        </mxCell>
        <mxCell id="partner_external" style="edgeStyle=orthogonalEdgeStyle;rounded=0;orthogonalLoop=1;jettySize=auto;html=1;entryX=0;entryY=0.5;entryDx=0;entryDy=0;strokeColor=#b85450;strokeWidth=2;" parent="1" source="partner_call" target="partner_system" edge="1">
          <mxGeometry relative="1" as="geometry">
            <Array as="points">
              <mxPoint x="230" y="410" />
              <mxPoint x="230" y="750" />
            </Array>
          </mxGeometry>
        </mxCell>
        <mxCell id="partner_external_label" value="Внешняя система&#xa;(изолирована)" style="edgeLabel;html=1;align=center;verticalAlign=middle;resizable=0;points=[];" parent="partner_external" vertex="1" connectable="0">
          <mxGeometry x="-0.1" y="-1" relative="1" as="geometry">
            <mxPoint x="5" y="-15" as="offset" />
          </mxGeometry>
        </mxCell>
        <mxCell id="back_abs" style="edgeStyle=orthogonalEdgeStyle;rounded=0;orthogonalLoop=1;jettySize=auto;html=1;entryX=0;entryY=0.7;entryDx=0;entryDy=0;strokeColor=#82b366;strokeWidth=3;" parent="1" source="back_office" target="abs_system" edge="1">
          <mxGeometry relative="1" as="geometry">
            <Array as="points">
              <mxPoint x="580" y="520" />
              <mxPoint x="580" y="384" />
            </Array>
          </mxGeometry>
        </mxCell>
        <mxCell id="back_abs_label" value="АБС + Excel&#xa;Обработка заявок,&#xa;расчёт ставок" style="edgeLabel;html=1;align=center;verticalAlign=middle;resizable=0;points=[];" parent="back_abs" vertex="1" connectable="0">
          <mxGeometry x="-0.1" y="-1" relative="1" as="geometry">
            <mxPoint x="92" y="23" as="offset" />
          </mxGeometry>
        </mxCell>
        <mxCell id="back_excel" style="edgeStyle=orthogonalEdgeStyle;rounded=0;orthogonalLoop=1;jettySize=auto;html=1;entryX=0;entryY=0.5;entryDx=0;entryDy=0;strokeColor=#d6b656;strokeWidth=2;" parent="1" source="back_office" target="excel_process" edge="1">
          <mxGeometry relative="1" as="geometry">
            <Array as="points">
              <mxPoint x="330" y="540" />
              <mxPoint x="330" y="620" />
              <mxPoint x="380" y="620" />
            </Array>
          </mxGeometry>
        </mxCell>
        <mxCell id="back_excel_label" value="Email + Excel&#xa;Обмен расчётами" style="edgeLabel;html=1;align=center;verticalAlign=middle;resizable=0;points=[];" parent="back_excel" vertex="1" connectable="0">
          <mxGeometry x="-0.1" y="-1" relative="1" as="geometry">
            <mxPoint x="58" y="75" as="offset" />
          </mxGeometry>
        </mxCell>
        <mxCell id="internet_abs" style="edgeStyle=orthogonalEdgeStyle;rounded=0;orthogonalLoop=1;jettySize=auto;html=1;entryX=0.2;entryY=0;entryDx=0;entryDy=0;strokeColor=#d79b00;strokeWidth=4;" parent="1" source="internet_bank" target="abs_system" edge="1">
          <mxGeometry relative="1" as="geometry" />
        </mxCell>
        <mxCell id="internet_abs_label" value="⚠️ ПРЯМАЯ ИНТЕГРАЦИЯ&#xa;Подключение к Oracle DB&#xa;(основная проблема)" style="edgeLabel;html=1;align=center;verticalAlign=middle;resizable=0;points=[];fontSize=11;fontStyle=1;" parent="internet_abs" vertex="1" connectable="0">
          <mxGeometry x="-0.1" y="-1" relative="1" as="geometry">
            <mxPoint x="-25" y="-26" as="offset" />
          </mxGeometry>
        </mxCell>
        <mxCell id="call_abs" style="edgeStyle=orthogonalEdgeStyle;rounded=0;orthogonalLoop=1;jettySize=auto;html=1;entryX=0;entryY=0.5;entryDx=0;entryDy=0;strokeColor=#6c8ebf;strokeWidth=3;" parent="1" source="call_center_system" target="abs_system" edge="1">
          <mxGeometry relative="1" as="geometry">
            <Array as="points">
              <mxPoint x="530" y="410" />
              <mxPoint x="530" y="360" />
            </Array>
          </mxGeometry>
        </mxCell>
        <mxCell id="call_abs_label" value="Заявки из кол-центра в АБС" style="edgeLabel;html=1;align=left;verticalAlign=middle;resizable=0;points=[];labelBackgroundColor=none;" parent="call_abs" vertex="1" connectable="0">
          <mxGeometry x="-0.1" y="-1" relative="1" as="geometry">
            <mxPoint x="-69" y="-25" as="offset" />
          </mxGeometry>
        </mxCell>
        <mxCell id="abs_sms" style="edgeStyle=orthogonalEdgeStyle;rounded=0;orthogonalLoop=1;jettySize=auto;html=1;entryX=0.5;entryY=0;entryDx=0;entryDy=0;strokeColor=#82b366;strokeWidth=3;" parent="1" source="abs_system" target="sms_gateway" edge="1">
          <mxGeometry relative="1" as="geometry" />
        </mxCell>
        <mxCell id="abs_sms_label" value="СМС уведомления&#xa;клиентам" style="edgeLabel;html=1;align=left;verticalAlign=middle;resizable=0;points=[];" parent="abs_sms" vertex="1" connectable="0">
          <mxGeometry x="-0.1" y="-1" relative="1" as="geometry">
            <mxPoint x="9" y="-9" as="offset" />
          </mxGeometry>
        </mxCell>
        <mxCell id="sms_telecom" style="edgeStyle=orthogonalEdgeStyle;rounded=0;orthogonalLoop=1;jettySize=auto;html=1;entryX=0;entryY=0.5;entryDx=0;entryDy=0;strokeColor=#b85450;strokeWidth=3;" parent="1" source="sms_gateway" target="telecom" edge="1">
          <mxGeometry relative="1" as="geometry" />
        </mxCell>
        <mxCell id="sms_telecom_label" value="HTTP API&#xa;Отправка СМС" style="edgeLabel;html=1;align=left;verticalAlign=middle;resizable=0;points=[];" parent="sms_telecom" vertex="1" connectable="0">
          <mxGeometry x="-0.1" y="-1" relative="1" as="geometry">
            <mxPoint x="4" y="-43" as="offset" />
          </mxGeometry>
        </mxCell>
        <mxCell id="problem1" value="❌ ПРОБЛЕМА 1&#xa;Прямое подключение&#xa;интернет-банка к АБС&#xa;перегружает систему" style="rounded=1;whiteSpace=wrap;html=1;fillColor=#ffcccc;strokeColor=#ff0000;fontStyle=1;" parent="1" vertex="1">
          <mxGeometry x="900" y="120" width="150" height="80" as="geometry" />
        </mxCell>
        <mxCell id="problem2" value="❌ ПРОБЛЕМА 2&#xa;Excel + Email процессы&#xa;между отделами&#xa;замедляют работу" style="rounded=1;whiteSpace=wrap;html=1;fillColor=#ffcccc;strokeColor=#ff0000;fontStyle=1;" parent="1" vertex="1">
          <mxGeometry x="900" y="220" width="150" height="80" as="geometry" />
        </mxCell>
        <mxCell id="problem3" value="❌ ПРОБЛЕМА 3&#xa;Партнёрский кол-центр&#xa;изолирован от&#xa;банковских систем" style="rounded=1;whiteSpace=wrap;html=1;fillColor=#ffcccc;strokeColor=#ff0000;fontStyle=1;" parent="1" vertex="1">
          <mxGeometry x="900" y="320" width="150" height="80" as="geometry" />
        </mxCell>
        <mxCell id="legend_title" value="Легенда интеграций:" style="text;html=1;strokeColor=none;fillColor=none;align=left;verticalAlign=middle;whiteSpace=wrap;rounded=0;fontSize=14;fontStyle=1;" parent="1" vertex="1">
          <mxGeometry x="1100" y="120" width="150" height="30" as="geometry" />
        </mxCell>
        <mxCell id="legend_critical" value="" style="endArrow=classic;html=1;rounded=0;strokeColor=#d79b00;strokeWidth=4;" parent="1" edge="1">
          <mxGeometry width="50" height="50" relative="1" as="geometry">
            <mxPoint x="1100" y="160" as="sourcePoint" />
            <mxPoint x="1170" y="160" as="targetPoint" />
          </mxGeometry>
        </mxCell>
        <mxCell id="legend_critical_label" value="Критическая интеграция" style="text;html=1;strokeColor=none;fillColor=none;align=left;verticalAlign=middle;whiteSpace=wrap;rounded=0;" parent="1" vertex="1">
          <mxGeometry x="1180" y="145" width="120" height="30" as="geometry" />
        </mxCell>
        <mxCell id="legend_system" value="" style="endArrow=classic;html=1;rounded=0;strokeColor=#82b366;strokeWidth=3;" parent="1" edge="1">
          <mxGeometry width="50" height="50" relative="1" as="geometry">
            <mxPoint x="1100" y="190" as="sourcePoint" />
            <mxPoint x="1170" y="190" as="targetPoint" />
          </mxGeometry>
        </mxCell>
        <mxCell id="legend_system_label" value="Системная интеграция" style="text;html=1;strokeColor=none;fillColor=none;align=left;verticalAlign=middle;whiteSpace=wrap;rounded=0;" parent="1" vertex="1">
          <mxGeometry x="1180" y="175" width="120" height="30" as="geometry" />
        </mxCell>
        <mxCell id="legend_user" value="" style="endArrow=classic;html=1;rounded=0;strokeColor=#666666;strokeWidth=2;" parent="1" edge="1">
          <mxGeometry width="50" height="50" relative="1" as="geometry">
            <mxPoint x="1100" y="220" as="sourcePoint" />
            <mxPoint x="1170" y="220" as="targetPoint" />
          </mxGeometry>
        </mxCell>
        <mxCell id="legend_user_label" value="Пользовательский интерфейс" style="text;html=1;strokeColor=none;fillColor=none;align=left;verticalAlign=middle;whiteSpace=wrap;rounded=0;" parent="1" vertex="1">
          <mxGeometry x="1180" y="205" width="120" height="30" as="geometry" />
        </mxCell>
        <mxCell id="legend_manual" value="" style="endArrow=classic;html=1;rounded=0;strokeColor=#d6b656;strokeWidth=2;" parent="1" edge="1">
          <mxGeometry width="50" height="50" relative="1" as="geometry">
            <mxPoint x="1100" y="250" as="sourcePoint" />
            <mxPoint x="1170" y="250" as="targetPoint" />
          </mxGeometry>
        </mxCell>
        <mxCell id="legend_manual_label" value="Ручные процессы" style="text;html=1;strokeColor=none;fillColor=none;align=left;verticalAlign=middle;whiteSpace=wrap;rounded=0;" parent="1" vertex="1">
          <mxGeometry x="1180" y="235" width="120" height="30" as="geometry" />
        </mxCell>
      </root>
    </mxGraphModel>
  </diagram>
</mxfile>
